#tb 0: 1/30
0,          0,          0,        1,     5014, 0x4798fa33
0,          1,          1,        1,      822, 0x596486c5, F=0x0
0,          2,          2,        1,      840, 0xf06490ba, F=0x0
0,          3,          3,        1,      853, 0x1db19d31, F=0x0
0,          4,          4,        1,      885, 0x5a1aa91f, F=0x0
0,          5,          5,        1,      902, 0xaabdb1ce, F=0x0
0,          6,          6,        1,      854, 0x6eb1954e, F=0x0
0,          7,          7,        1,     3086, 0xe4c12b4a, F=0x0
0,          8,          8,        1,      732, 0x3c0868bc, F=0x0
0,          9,          9,        1,      719, 0xa0995781, F=0x0
0,         10,         10,        1,      749, 0xce2c6ce9, F=0x0
0,         11,         11,        1,      869, 0x9080b554, F=0x0
0,         12,         12,        1,      967, 0x8cd5e57a, F=0x0
0,         13,         13,        1,     1581, 0xd0cc21d8, F=0x0
0,         14,         14,        1,      934, 0x94facbdc, F=0x0
0,         15,         15,        1,      841, 0xb00aa233, F=0x0
0,         16,         16,        1,      820, 0xe93da769, F=0x0
0,         17,         17,        1,      818, 0xa2ff91cb, F=0x0
0,         18,         18,        1,     3113, 0x8e74377b, F=0x0
0,         19,         19,        1,      733, 0xc88e7918, F=0x0
0,         20,         20,        1,      745, 0x41116e83, F=0x0
0,         21,         21,        1,      764, 0xc89a7652, F=0x0
0,         22,         22,        1,      730, 0xe9586ef3, F=0x0
0,         23,         23,        1,      736, 0x89437b6a, F=0x0
0,         24,         24,        1,     1268, 0x0e985dc0, F=0x0
0,         25,         25,        1,      805, 0x8f78897f, F=0x0
0,         26,         26,        1,      769, 0xe5417a9b, F=0x0
0,         27,         27,        1,      739, 0x5c0f72ea, F=0x0
0,         28,         28,        1,      730, 0x0f556cb5, F=0x0
0,         29,         29,        1,     3057, 0x8fb3e57c, F=0x0
0,         30,         30,        1,      763, 0xc69479da, F=0x0
0,         31,         31,        1,      745, 0x757b7265, F=0x0
0,         32,         32,        1,      712, 0x20a75fc2, F=0x0
0,         33,         33,        1,      723, 0x44016897, F=0x0
0,         34,         34,        1,      716, 0x18f96229, F=0x0
0,         35,         35,        1,     1132, 0xe1542e3e, F=0x0
0,         36,         36,        1,      774, 0x0027865b, F=0x0
0,         37,         37,        1,      770, 0x1bd67c7e, F=0x0
0,         38,         38,        1,      755, 0xdb54746a, F=0x0
0,         39,         39,        1,      726, 0x010973bd, F=0x0
0,         40,         40,        1,     3078, 0x9971fe7a, F=0x0
0,         41,         41,        1,      749, 0xcd7873de, F=0x0
0,         42,         42,        1,      722, 0x05c86a36, F=0x0
0,         43,         43,        1,      726, 0x4a356dd8, F=0x0
0,         44,         44,        1,      710, 0x62176453, F=0x0
0,         45,         45,        1,      707, 0xfb8b5c7c, F=0x0
0,         46,         46,        1,     1143, 0x771832ff, F=0x0
0,         47,         47,        1,      780, 0x3fb488a0, F=0x0
0,         48,         48,        1,      720, 0xbbf27127, F=0x0
0,         49,         49,        1,      740, 0xc6276dcb, F=0x0
0,         50,         50,        1,      781, 0xa45586f4, F=0x0
0,         51,         51,        1,     3122, 0x9e87222e, F=0x0
0,         52,         52,        1,      748, 0xe5827d61, F=0x0
0,         53,         53,        1,      740, 0x7b436f4c, F=0x0
0,         54,         54,        1,      748, 0xa7b972fe, F=0x0
0,         55,         55,        1,      731, 0x2a0a67d1, F=0x0
0,         56,         56,        1,      733, 0x8c956ae1, F=0x0
0,         57,         57,        1,     1132, 0x60f41eaa, F=0x0
0,         58,         58,        1,      755, 0x72a276b8, F=0x0
0,         59,         59,        1,      765, 0x4da18195, F=0x0
0,         60,         60,        1,      715, 0x33b35877, F=0x0
0,         61,         61,        1,      769, 0x16b6867e, F=0x0
0,         62,         62,        1,     3219, 0x465f474f, F=0x0
0,         63,         63,        1,      732, 0xb2f56da4, F=0x0
0,         64,         64,        1,      808, 0xeca18ba7, F=0x0
0,         65,         65,        1,      772, 0x7c978926, F=0x0
0,         66,         66,        1,      791, 0x0c238441, F=0x0
0,         67,         67,        1,      778, 0x55e0844e, F=0x0
0,         68,         68,        1,     1443, 0x9cbed37b, F=0x0
0,         69,         69,        1,      862, 0xbdcaa8b9, F=0x0
